<svg id="Duotone" xmlns="http://www.w3.org/2000/svg" viewBox="0 0 100 112"><defs><style>.cls-1{fill:#f0f2ff;}.cls-2{fill:none;}.cls-2,.cls-5,.cls-6{stroke:#4550e5;stroke-linecap:round;stroke-linejoin:round;}.cls-3,.cls-6{fill:#d6daff;}.cls-4,.cls-5{fill:#fff;}</style></defs><title>50- business-graph-2</title><g id="Icons"><path class="cls-1" d="M90.12,56A40,40,0,1,0,13.69,72.5H86.56A39.85,39.85,0,0,0,90.12,56Z"/><line class="cls-2" x1="10.62" y1="72.5" x2="88.62" y2="72.5"/><line class="cls-2" x1="6.12" y1="72.5" x2="8.62" y2="72.5"/><line class="cls-2" x1="90.62" y1="72.5" x2="93.12" y2="72.5"/><rect class="cls-3" x="21.45" y="24.82" width="50.75" height="38.45" rx="3.6" ry="3.6"/><path class="cls-4" d="M26.06,24.82a4.61,4.61,0,0,0-4.61,4.61V54a3.75,3.75,0,0,0,.05.47L51.19,24.82Z"/><rect class="cls-2" x="21.45" y="24.82" width="50.75" height="38.45" rx="3.6" ry="3.6"/><polygon class="cls-4" points="51.44 69.42 42.21 69.42 42.98 63.27 50.67 63.27 51.44 69.42"/><polygon class="cls-2" points="51.44 69.42 42.21 69.42 42.98 63.27 50.67 63.27 51.44 69.42"/><path class="cls-5" d="M56.06,72.5H37.6a3.08,3.08,0,0,1,3.08-3.08H53A3.08,3.08,0,0,1,56.06,72.5Z"/><path class="cls-5" d="M67.59,63.27a4.61,4.61,0,0,0,4.61-4.62V57.12H21.45v1.53a4.62,4.62,0,0,0,4.61,4.62Z"/><path class="cls-6" d="M90.5,45.06a2.43,2.43,0,0,1-3.44,3.44L81.53,43a1.28,1.28,0,0,1,0-1.81l1.62-1.63a1.29,1.29,0,0,1,.91-.37,1.26,1.26,0,0,1,.9.37Z"/><rect class="cls-5" x="78.98" y="35.15" width="2.43" height="6.07" transform="translate(-3.52 67.89) rotate(-45)"/><path class="cls-5" d="M79.33,21.87a10.93,10.93,0,1,1-15.46,0A10.93,10.93,0,0,1,79.33,21.87Z"/><path class="cls-3" d="M77.19,24A7.89,7.89,0,1,1,66,24,7.89,7.89,0,0,1,77.19,24Z"/><path class="cls-4" d="M77.19,24A7.89,7.89,0,1,0,66,35.18l.12.11L77.29,24.13A1,1,0,0,1,77.19,24Z"/><path class="cls-2" d="M77.19,24A7.89,7.89,0,1,1,66,24,7.89,7.89,0,0,1,77.19,24Z"/><line class="cls-2" x1="54.52" y1="45.58" x2="63.75" y2="45.58"/><line class="cls-2" x1="54.52" y1="48.66" x2="63.75" y2="48.66"/><line class="cls-2" x1="54.52" y1="51.73" x2="63.75" y2="51.73"/><path class="cls-5" d="M43,27.89V38.66H53.75A10.77,10.77,0,0,0,43,27.89Z"/><polyline class="cls-2" points="49.14 34.82 52.98 30.97 56.82 30.97"/><path class="cls-5" d="M39.91,31a10.77,10.77,0,0,0-7.62,18.38l7.62-7.61Z"/><path class="cls-5" d="M50.67,41.74H39.91l-7.62,7.61a10.77,10.77,0,0,0,18.38-7.61Z"/><polyline class="cls-2" points="40.67 49.43 44.52 54.04 49.9 54.04"/><polyline class="cls-2" points="33.75 40.97 30.68 35.59 24.53 35.59"/><circle class="cls-2" cx="46.83" cy="60.19" r="0.64"/></g></svg>