<svg id="Duotone" xmlns="http://www.w3.org/2000/svg" viewBox="0 0 100 112"><defs><style>.cls-1,.cls-4{fill:#fff;}.cls-2,.cls-3,.cls-6{fill:none;}.cls-2,.cls-3,.cls-4,.cls-6,.cls-8{stroke:#4550e5;}.cls-2,.cls-4,.cls-6{stroke-linecap:round;}.cls-2,.cls-8{stroke-miterlimit:10;}.cls-3,.cls-4,.cls-6{stroke-linejoin:round;}.cls-5,.cls-8{fill:#d6daff;}.cls-7{fill:#4550e5;}</style></defs><title>01- cloud-network-device</title><g id="Icons"><path class="cls-1" d="M60.62,55.38a4.06,4.06,0,0,0-1.48.29,6.8,6.8,0,0,0-13.43,0,4,4,0,0,0-1.47-.29,4.1,4.1,0,0,0,0,8.2H60.62a4.1,4.1,0,0,0,0-8.2Z"/><path class="cls-2" d="M25.7,40.75A29.36,29.36,0,0,1,34,32.6"/><path class="cls-2" d="M33.48,81.59a29.57,29.57,0,0,1-8.62-9.09"/><path class="cls-2" d="M73.49,75A29.57,29.57,0,0,1,64.19,83"/><path class="cls-2" d="M64.71,31.81a29.44,29.44,0,0,1,9.49,8.75"/><path class="cls-3" d="M60.62,55.38a4.06,4.06,0,0,0-1.48.29,6.8,6.8,0,0,0-13.43,0,4,4,0,0,0-1.47-.29,4.1,4.1,0,0,0,0,8.2H60.62a4.1,4.1,0,0,0,0-8.2Z"/><path class="cls-3" d="M60.62,55.38a4.06,4.06,0,0,0-1.48.29,6.8,6.8,0,0,0-13.43,0,4,4,0,0,0-1.47-.29,4.1,4.1,0,0,0,0,8.2H60.62a4.1,4.1,0,0,0,0-8.2Z"/><path class="cls-4" d="M41.91,77.23h16.2a2.4,2.4,0,0,1,2.4,2.4V90.35a0,0,0,0,1,0,0h-21a0,0,0,0,1,0,0V79.63A2.4,2.4,0,0,1,41.91,77.23Z"/><path class="cls-5" d="M58.41,90.35H41.61V79.85a.52.52,0,0,1,.53-.52H57.89a.52.52,0,0,1,.52.52Z"/><path class="cls-1" d="M42.14,79.33a.52.52,0,0,0-.53.52v10.5h2.11l11-11Z"/><path class="cls-6" d="M58.41,90.35H41.61V79.85a.52.52,0,0,1,.53-.52H57.89a.52.52,0,0,1,.52.52Z"/><path class="cls-4" d="M62.61,90.35H37.41A3.27,3.27,0,0,0,40.61,93h18.8a3.26,3.26,0,0,0,3.2-2.63Z"/><path class="cls-5" d="M62.09,33.13V21.46A1.56,1.56,0,0,0,60.51,20H40.45A1.46,1.46,0,0,0,39,21.46V33.13Z"/><path class="cls-1" d="M55.46,20h-15A1.46,1.46,0,0,0,39,21.46V33.13H42.3Z"/><path class="cls-4" d="M62.09,33.13v2.73a1.47,1.47,0,0,1-1.47,1.47H40.45A1.46,1.46,0,0,1,39,35.86V33.13Z"/><path class="cls-7" d="M50.58,34.7a.53.53,0,0,0-.53.53.52.52,0,0,0,.53.52.52.52,0,0,0,.52-.52.52.52,0,0,0-.52-.53Z"/><polygon class="cls-4" points="54.41 40.48 47.09 40.48 47.45 37.33 54.04 37.33 54.41 40.48"/><line class="cls-6" x1="44.89" y1="40.48" x2="56.6" y2="40.48"/><path class="cls-6" d="M62.09,33.13V21.46A1.56,1.56,0,0,0,60.51,20H40.45A1.46,1.46,0,0,0,39,21.46V33.13Z"/><rect class="cls-4" x="72.06" y="46.25" width="12.6" height="23.1" rx="2" ry="2"/><rect class="cls-6" x="72.06" y="46.25" width="12.6" height="23.1" rx="2" ry="2"/><rect class="cls-5" x="72.06" y="50.45" width="12.6" height="14.7"/><polygon class="cls-1" points="82.56 50.45 72.06 50.45 72.06 60.95 82.56 50.45"/><rect class="cls-6" x="72.06" y="50.45" width="12.6" height="14.7"/><line class="cls-6" x1="77.31" y1="48.35" x2="79.41" y2="48.35"/><circle class="cls-6" cx="78.36" cy="66.99" r="0.26"/><rect class="cls-4" x="14.84" y="46.25" width="17.85" height="23.1" rx="2.1" ry="2.1"/><rect class="cls-5" x="16.94" y="48.88" width="13.65" height="17.85" rx="1.05" ry="1.05"/><path class="cls-1" d="M28.36,48.88H18a1,1,0,0,0-1,1V60.29Z"/><rect class="cls-6" x="16.94" y="48.88" width="13.65" height="17.85" rx="1.05" ry="1.05"/><circle class="cls-8" cx="74.69" cy="42.05" r="1.58"/><circle class="cls-8" cx="74.16" cy="73.55" r="1.58"/><circle class="cls-8" cx="34.79" cy="82.48" r="1.58"/><circle class="cls-8" cx="24.81" cy="42.05" r="1.58"/><path class="cls-1" d="M51.22,57.59a3,3,0,0,0-1.08.21,5,5,0,0,0-9.81,0,3,3,0,1,0-1.08,5.78h12a3,3,0,0,0,0-6Z"/><path class="cls-1" d="M51.22,57.59a3,3,0,0,0-1.08.21,5,5,0,0,0-9.81,0,3,3,0,1,0-1.08,5.78h12a3,3,0,0,0,0-6Z"/><path class="cls-3" d="M51.22,57.59a3,3,0,0,0-1.08.21,5,5,0,0,0-9.81,0,3,3,0,1,0-1.08,5.78h12a3,3,0,0,0,0-6Z"/><path class="cls-3" d="M51.22,57.59a3,3,0,0,0-1.08.21,5,5,0,0,0-9.81,0,3,3,0,1,0-1.08,5.78h12a3,3,0,0,0,0-6Z"/></g></svg>