<svg id="Duotone" xmlns="http://www.w3.org/2000/svg" viewBox="0 0 100 112"><defs><style>.cls-1{fill:#f0f2ff;}.cls-2,.cls-6{fill:none;}.cls-2,.cls-4,.cls-5,.cls-6,.cls-7{stroke:#4550e5;stroke-linejoin:round;}.cls-2,.cls-7{stroke-linecap:round;}.cls-3,.cls-5,.cls-7{fill:#fff;}.cls-4,.cls-8{fill:#d6daff;}</style></defs><title>63- osx-programmer-male-caucasian</title><g id="Icons"><g id="Background"><path class="cls-1" d="M90.34,56A40,40,0,1,0,13.9,72.5H86.77A39.86,39.86,0,0,0,90.34,56Z"/><line class="cls-2" x1="11.34" y1="72.5" x2="89.34" y2="72.5"/><line class="cls-2" x1="6.84" y1="72.5" x2="9.34" y2="72.5"/><line class="cls-2" x1="91.34" y1="72.5" x2="93.84" y2="72.5"/></g><g id="Scene"><path class="cls-3" d="M49.34,49.5A15.5,15.5,0,0,0,33.84,65v5.16a1.29,1.29,0,0,1-2,1l-2-1.2a3,3,0,0,0-3.1,5.16c2,1.22,3.34,2.24,5.73,2.24a7.31,7.31,0,0,0,6.81-4.91h25.5V65A15.5,15.5,0,0,0,49.34,49.5Z"/><path class="cls-2" d="M49.34,49.5A15.5,15.5,0,0,0,33.84,65v5.16a1.29,1.29,0,0,1-2,1l-2-1.2a3,3,0,0,0-3.1,5.16c2,1.22,3.34,2.24,5.73,2.24a7.31,7.31,0,0,0,6.81-4.91h25.5V65A15.5,15.5,0,0,0,49.34,49.5Z"/><path class="cls-1" d="M35.34,78.5c0,.83-3.09,1.5-7.43,1.5s-6.57-.67-6.57-1.5S23.58,77,27.91,77,35.34,77.67,35.34,78.5Z"/><path class="cls-4" d="M50.59,47.5h-2.5a4.25,4.25,0,0,0,0,8.5h2.5a4.25,4.25,0,0,0,0-8.5Z"/><line class="cls-2" x1="39.34" y1="72.5" x2="39.34" y2="63.5"/><line class="cls-2" x1="59.34" y1="72.5" x2="59.34" y2="63.5"/><path class="cls-3" d="M45.84,46v5.59s0,2.38,3.5,2.41,3.5-2.41,3.5-2.41V46Z"/><path class="cls-2" d="M45.84,46v5.59s0,2.38,3.5,2.41,3.5-2.41,3.5-2.41V46Z"/><path class="cls-1" d="M77.34,84.5c0,.83-7.28,1.5-17.5,1.5s-15.5-.67-15.5-1.5S49.62,83,59.84,83,77.34,83.67,77.34,84.5Z"/><path class="cls-5" d="M46.32,81h29a0,0,0,0,1,0,0v.5a2,2,0,0,1-2,2h-25a2,2,0,0,1-2-2V81A0,0,0,0,1,46.32,81Z"/><path class="cls-3" d="M75.34,81h-29L44.85,67.74a2,2,0,0,1,.49-1.57,2,2,0,0,1,1.5-.67h28a2,2,0,0,1,1.5.67,2,2,0,0,1,.48,1.57Z"/><path class="cls-6" d="M75.34,81h-29L44.85,67.74a2,2,0,0,1,.49-1.57,2,2,0,0,1,1.5-.67h28a2,2,0,0,1,1.5.67,2,2,0,0,1,.48,1.57Z"/><path class="cls-4" d="M62.45,73.36a1.53,1.53,0,0,1,.73-1.29,1.58,1.58,0,0,0-1.24-.68c-.53,0-1,.31-1.31.31s-.68-.3-1.12-.29a1.66,1.66,0,0,0-1.41.85,3.54,3.54,0,0,0,.44,3.43c.28.41.62.88,1.07.86s.59-.28,1.11-.28.67.28,1.13.27.75-.42,1-.84a3.65,3.65,0,0,0,.47-1A1.5,1.5,0,0,1,62.45,73.36Z"/><line class="cls-2" x1="61.28" y1="69.62" x2="61.91" y2="69"/><path class="cls-7" d="M28.48,69.5H27.19a2.88,2.88,0,0,0-2.85,2.92V75.2a1.21,1.21,0,0,0,.88,1.15,9.52,9.52,0,0,0,5.24,0,1.21,1.21,0,0,0,.88-1.15V72.42A2.89,2.89,0,0,0,28.48,69.5Z"/><path class="cls-3" d="M31.51,78.5H24.34a1,1,0,0,1-1-1.15l.25-1.64A4.37,4.37,0,0,1,27.92,72h0a4.36,4.36,0,0,1,4.32,3.71l.26,1.64A1,1,0,0,1,31.51,78.5Z"/><path class="cls-2" d="M31.51,78.5H24.34a1,1,0,0,1-1-1.15l.25-1.64A4.37,4.37,0,0,1,27.92,72h0a4.36,4.36,0,0,1,4.32,3.71l.26,1.64A1,1,0,0,1,31.51,78.5Z"/><circle class="cls-2" cx="27.84" cy="74.43" r="0.5"/><path class="cls-7" d="M43.84,87h-7a1,1,0,0,1-1-1V85h9v1A1,1,0,0,1,43.84,87Z"/><path class="cls-8" d="M44.84,85h-9l1.77-5.32a1,1,0,0,1,1-.68h3.56a1,1,0,0,1,1,.68Z"/><path class="cls-3" d="M42.12,79H38.56a1,1,0,0,0-1,.68L35.84,85h.61l6.6-5.37A1,1,0,0,0,42.12,79Z"/><path class="cls-2" d="M44.84,85h-9l1.77-5.32a1,1,0,0,1,1-.68h3.56a1,1,0,0,1,1,.68Z"/><line class="cls-2" x1="39.84" y1="80.38" x2="40.84" y2="80.38"/><rect class="cls-7" x="40.84" y="85" width="2" height="2"/><path class="cls-7" d="M59.34,35.5V33a10,10,0,0,0-20,0v2.5a2,2,0,0,0,0,4h.12a10,10,0,0,0,19.76,0h.12a2,2,0,0,0,0-4Z"/><circle class="cls-8" cx="43.59" cy="39.26" r="1.25"/><circle class="cls-8" cx="55.09" cy="39.26" r="1.25"/><path class="cls-2" d="M46.84,36a1.63,1.63,0,0,0-3,0"/><path class="cls-2" d="M54.85,36a1.63,1.63,0,0,0-3,0"/><path class="cls-7" d="M57,40c-1,2.4-1.08,3-1.74,3.17l-.76.19a.89.89,0,0,1-1.07-.59c-.67-1.53-1.8-2.8-3.4-2.8h-1.4c-1.6,0-2.74,1.27-3.4,2.8a.9.9,0,0,1-1.07.59l-.76-.19c-.67-.17-.72-.77-1.75-3.17-.33-.78-1.31-.54-2.2-.54a9.88,9.88,0,1,0,19.76,0C58.33,39.49,57.35,39.25,57,40Z"/><path class="cls-3" d="M39,35.69a1,1,0,0,1-1.15-.5,12,12,0,0,1-1-5.31A9.93,9.93,0,0,1,46.77,20c2.7,0,8.12-.65,9.92,1.76C64.61,23.47,61.85,37,61.05,36.2a1.91,1.91,0,0,0-1.35-.6,2.09,2.09,0,0,0-1.36.4,15.18,15.18,0,0,1-2.54-9.73c0,2.71-5.93,5.06-10.94,5.06a11.64,11.64,0,0,1-3.6-.51A14.07,14.07,0,0,1,40.84,36,2.26,2.26,0,0,0,39,35.69Z"/><path class="cls-2" d="M47.35,42.5a4.21,4.21,0,0,0,4,0"/><path class="cls-2" d="M39,35.69a1,1,0,0,1-1.15-.5,12,12,0,0,1-1-5.31A9.93,9.93,0,0,1,46.77,20c2.7,0,8.12-.65,9.92,1.76C64.61,23.47,61.85,37,61.05,36.2a1.91,1.91,0,0,0-1.35-.6,2.09,2.09,0,0,0-1.36.4,15.18,15.18,0,0,1-2.54-9.73c0,2.71-5.93,5.06-10.94,5.06a11.64,11.64,0,0,1-3.6-.51A14.07,14.07,0,0,1,40.84,36,2.26,2.26,0,0,0,39,35.69Z"/></g></g></svg>